<svg version="1.1" xmlns="http://www.w3.org/2000/svg" xmlns:xlink="http://www.w3.org/1999/xlink" x="0px" y="0px" width="60" height="60"
	 viewBox="0 0 20.3 20" style="enable-background:new 0 0 20.3 20;" xml:space="preserve">
	<g>
		<g>
			<g>
				<path fill="#ffffff" d="M10,5c0-0.6-0.4-1-1-1C6.2,4,4,6.2,4,9c0,0.6,0.4,1,1,1s1-0.4,1-1c0-1.7,1.3-3,3-3C9.6,6,10,5.6,10,5z"/>
				<path fill="#ffffff" d="M10,1c0-0.6-0.4-1-1-1C4,0,0,4,0,9c0,0.6,0.4,1,1,1s1-0.4,1-1c0-3.9,3.1-7,7-7C9.6,2,10,1.6,10,1z"/>
				<path fill="#ffffff" d="M0.1,14.6C0,14.9,0,15.1,0,15.4l0,0C0,17.9,2.1,20,4.6,20C13.1,20,20,13.1,20,4.6C20,2.1,17.9,0,15.4,0
					c-0.3,0-0.5,0-0.8,0.1c-0.2,0-0.5,0.1-0.7,0.2c-0.3,0.1-0.6,0.4-0.6,0.7l-1.4,5.9c-0.1,0.3,0,0.7,0.3,0.9C12.3,8,12.3,8,13.6,8.6
					c-1,2.2-2.7,3.9-4.9,4.9C8,12.3,8,12.3,7.9,12.2c-0.2-0.2-0.6-0.3-0.9-0.3l-6,1.4c-0.3,0.1-0.6,0.3-0.7,0.6
					C0.2,14.1,0.1,14.4,0.1,14.6z"/>
			</g>
		</g>
	</g>
</svg>
