<svg xmlns="http://www.w3.org/2000/svg" viewBox="0 0 310.02 241.69" width="128" height="100"><title>aa - final outlined</title><path d="M115.71,122.43q-2.52-3.38-2.74-16.27l-.5-24.41q-.07-3.89-.94-4.46l-.29-.14L111,77l-.65-.22q-.65-.22-.65-.65,0-.65,1.08-.65,3.82.36,5,.36t5-.36H121q.86,0,.86.65,0,.36-.65.58l-.58.29a2.5,2.5,0,0,0-.72.36q-1.08.72-1.15,5l-.5,26.21v3.24q0,6,1.37,7.92,3.67,5.26,10.8,5.26a17.8,17.8,0,0,0,13.32-5.4,14.39,14.39,0,0,0,3.74-6,26,26,0,0,0,.5-6.26v-3.6L147.46,81q-.07-.86-.07-1.58v-.58a4,4,0,0,0-1.22-1.15q-1.94-1.3-1.94-1.73a.59.59,0,0,1,.22-.36,1.16,1.16,0,0,1,.5-.14h.29q4.17.36,5.69.36,1.3,0,5.47-.36h.29c.43,0,.65.14.65.43s-.17.46-.5.65l-.5.22-.58.36a3.75,3.75,0,0,0-1.15,1.3,9.64,9.64,0,0,0-.58,3l-.94,38.74v.43a5.79,5.79,0,0,0,1.08,3.89l.43.36.29.29c.24.24.36.43.36.58q0,.5-.86.5h-.22q-2.66-.22-3.67-.22-1.44,0-4.25.22H146q-.65,0-.65-.5a.65.65,0,0,1,.43-.58l.43-.14.5-.22q1.37-.72,1.37-3.46v-.14l-.07-3.67q-6.7,9.79-19.37,9.79Q119.23,127.26,115.71,122.43Z" style="fill:#f0dc52"/><path d="M128.67,128.26c-6.59,0-11.22-1.76-13.76-5.23-1.82-2.45-2.78-8-2.93-16.85l-.5-24.4c-.05-2.77-.4-3.5-.5-3.65l-.39-.2-.58-.19a1.68,1.68,0,0,1-1.33-1.6c0-.28.1-1.65,2.08-1.65,2.59.24,4.23.36,5,.36s2.5-.12,4.94-.36H121a1.65,1.65,0,0,1,1.86,1.65c0,.4-.17,1.11-1.26,1.5l-.72.33a1.64,1.64,0,0,0-.41.22s-.64.52-.7,4.22l-.5,26.21v3.22c0,4.73.64,6.6,1.17,7.33,2.28,3.27,5.55,4.85,10,4.85a16.91,16.91,0,0,0,12.6-5.1,13.47,13.47,0,0,0,3.5-5.55,24.13,24.13,0,0,0,.47-6v-3.6l-.5-22.73c0-.54-.07-1.1-.07-1.61v-.26a8.81,8.81,0,0,0-.82-.66c-1.77-1.18-2.35-1.8-2.35-2.53a1.55,1.55,0,0,1,.51-1.07l.26-.19a2.14,2.14,0,0,1,1-.25h.29c2.82.24,4.7.36,5.69.36s2.65-.12,5.39-.36h.37a1.46,1.46,0,0,1,1.65,1.43,1.73,1.73,0,0,1-1,1.52l-.1.05-.43.19-.51.32a2.71,2.71,0,0,0-.8.93,9.17,9.17,0,0,0-.46,2.55l-.93,38.69v.41a5,5,0,0,0,.79,3.17l.72.66a1.89,1.89,0,0,1,.65,1.28c0,.69-.49,1.5-1.86,1.5h-.22c-1.81-.14-3-.22-3.67-.22-.94,0-2.34.07-4.17.21H146a1.49,1.49,0,0,1-1.65-1.5,1.64,1.64,0,0,1,1-1.47l.13-.05.86-.33c.62-.33.76-1.56.76-2.54l0-.95C142.55,125.6,136.37,128.26,128.67,128.26ZM112.31,76.64c.76.71,1.1,2.23,1.15,5.1l.5,24.41c.17,10.39,1.48,14.27,2.54,15.69h0c2.14,2.93,6.23,4.41,12.15,4.41a27,27,0,0,0,6-.63,22.17,22.17,0,0,1-4.24.39c-5.08,0-9-1.91-11.62-5.68-1-1.42-1.55-4.2-1.55-8.49v-3.24l.5-26.23c.05-3.19.5-5,1.45-5.75q-2.42.21-3.48.21C115.08,76.85,114,76.78,112.31,76.64ZM150.48,125c.59,0,1.57.05,2.93.15h0a6.65,6.65,0,0,1-1.33-4.55v-.43L153,81.37a10.55,10.55,0,0,1,.66-3.32,5,5,0,0,1,1.11-1.42c-1.86.15-3.15.22-3.87.22-.9,0-2.46-.09-4.65-.27l.45.31a4.41,4.41,0,0,1,1.6,1.61l.07.18v.77q0,.68.07,1.5l.51,22.81v3.62a26.48,26.48,0,0,1-.54,6.54,13.82,13.82,0,0,1-2.46,4.64q.65-.79,1.25-1.67l1.76-2.58.13,7a5.3,5.3,0,0,1-1.15,3.77C149,125,149.83,125,150.48,125ZM121,75.7Z" style="fill:#f0dc52"/><path d="M172,105.73q0,16.42,1.15,18.07a1.2,1.2,0,0,0,.5.5l.72.36c.57.29.86.58.86.86s-.34.65-1,.65H174q-2.88-.22-4.39-.22t-4.32.22H165q-.93,0-.94-.65c0-.24.19-.43.58-.58l.5-.22.65-.29q1.08-.58,1.08-3.82v-.79c0-.62,0-1.32-.07-2.09q0-1.94-.07-2.88v-3.74q-.15-6.77-.14-10.51-.07-4.54-.07-14.33,0-7.49-.58-8.5c0-.19-.24-.36-.57-.5l-.36-.22-.36-.14c-.67-.38-1-.67-1-.86q0-.58.86-.58h3.82q10,0,13.54.94,9.5,2.38,9.5,10.66A10.81,10.81,0,0,1,188.07,95a18.9,18.9,0,0,1-9.5,5.11l14.11,21a15,15,0,0,0,2,2.45,6.33,6.33,0,0,0,1.37,1.08c.77.43,1.15.75,1.15.94q0,.65-1,.65l-.21-.07h-.22a13.25,13.25,0,0,0-1.66-.07h-2.3a18.24,18.24,0,0,0-1.87.07.3.3,0,0,1-.21.07q-.58,0-4.75-7-2.16-3.67-5.11-7.85a121,121,0,0,0-7.85-10Zm.22-6q6.26,0,9.58-3T185.11,88a11.05,11.05,0,0,0-3-8.06,10.49,10.49,0,0,0-7.85-3.1q-1.08,0-1.3.43a4.86,4.86,0,0,0-.14.79q-.07.72-.14,1.66-.5,9.94-.65,20Z" style="fill:#f0dc52"/><path d="M196.2,127.25H196l-.41-.08a12,12,0,0,0-1.52-.06h-2.3c-.66,0-1.19,0-1.57,0a1.35,1.35,0,0,1-.51.1c-.69,0-1.15,0-5.61-7.47-1.43-2.43-3.13-5-5.07-7.78s-3.86-5.27-6-7.87v1.6c0,14.43.68,17,1,17.5l.08.12.11.08.66.33c.35.18,1.42.71,1.42,1.76,0,.28-.1,1.65-2,1.65H174c-2-.14-3.4-.22-4.39-.22s-2.32.07-4.25.21H165c-1.43,0-1.94-.89-1.94-1.65a1.6,1.6,0,0,1,1.22-1.51l1.1-.48h0s.49-.42.49-2.9v-.79c0-.61,0-1.28-.07-2,0-1.31,0-2.25-.07-2.87v-3.82c-.1-4.42-.14-8-.14-10.51,0-3-.07-7.69-.07-14.33s-.34-7.79-.45-8l0,0-.08,0-.82-.41c-.73-.42-1.51-.93-1.51-1.73s.49-1.58,1.86-1.58h3.82c6.82,0,11.33.32,13.79,1,6.8,1.7,10.25,5.61,10.25,11.62a11.82,11.82,0,0,1-3.6,8.63,19.11,19.11,0,0,1-8.61,5l13.34,19.87a14.16,14.16,0,0,0,1.89,2.3,5.39,5.39,0,0,0,1.15.91c1.06.6,1.67,1.08,1.67,1.81C198.21,125.88,198.11,127.25,196.2,127.25Zm-21.87-1.44Zm-1.57-25.06h0a122.65,122.65,0,0,1,7.91,10.09c2,2.78,3.7,5.44,5.16,7.91a59.39,59.39,0,0,0,4.14,6.41c.46,0,1.06-.06,1.84-.06h3.11a8.77,8.77,0,0,1-.94-.82,16.08,16.08,0,0,1-2.15-2.61l-14.46-21.54A19.63,19.63,0,0,1,172.76,100.75ZM169.56,125c.86,0,2,.05,3.51.15a2.18,2.18,0,0,1-.8-.85c-.64-1.06-1.26-4.31-1.26-18.54v-7c.1-6.36.32-12.77.63-19.07,0-.66.1-1.22.15-1.71a5.33,5.33,0,0,1,.19-1l.06-.14a1.55,1.55,0,0,1,.21-.31q-1.81,0-3.92,0H166a1.73,1.73,0,0,1,.86.92c.34.71.65,2.43.65,8.88,0,6.62,0,11.31.07,14.31,0,2.55,0,6.08.14,10.51v3.77c0,.59.07,1.58.07,2.88,0,.73.07,1.45.07,2.09v.79c0,2.3-.4,3.73-1.24,4.45C167.89,125,168.87,125,169.56,125Zm4.52-1.54v0h0Zm-.25-45.54c0,.08,0,.19,0,.32,0,.45-.09,1-.14,1.61-.32,6.24-.53,12.6-.63,18.93,3.51-.12,6.23-1,8.1-2.75s3-4.44,3-8a10,10,0,0,0-2.74-7.37,9.44,9.44,0,0,0-7.13-2.79A2.77,2.77,0,0,0,173.84,77.88Zm5.89-.85a10.92,10.92,0,0,1,3.08,2.23A12.07,12.07,0,0,1,186.11,88c0,4.07-1.22,7.25-3.64,9.45q-.3.27-.61.52a15.8,15.8,0,0,0,5.47-3.67,9.79,9.79,0,0,0,3-7.24c0-5-2.86-8.21-8.75-9.69A16.88,16.88,0,0,0,179.73,77ZM165,78l0,.1Z" style="fill:#f0dc52"/><path d="M243.86,117.83a29.57,29.57,0,0,1-9.58,7A24.36,24.36,0,0,1,224,127.33a23.78,23.78,0,0,1-9.65-2.16,22.83,22.83,0,0,1-8.14-5.54,23.86,23.86,0,0,1-6.34-16.85,26,26,0,0,1,2.66-11.23,33.41,33.41,0,0,1,7.34-10.22,25.52,25.52,0,0,1,18.29-7.06q10.73,0,17.71,6.77a22,22,0,0,1,6.84,16.49,27.1,27.1,0,0,1-2.3,10.15A35.22,35.22,0,0,1,243.86,117.83Zm3.82-15.91q0-10.08-6.62-16.56T223.7,78.8q-8.5,0-13.89,5.18a19.05,19.05,0,0,0-6.19,14.18q0,8.57,6.63,15.84a28.29,28.29,0,0,0,9,6.41,23.35,23.35,0,0,0,9.86,2.38,17,17,0,0,0,13.25-6A21.58,21.58,0,0,0,247.68,101.91Z" style="fill:#f0dc52"/><path d="M224,128.33a24.88,24.88,0,0,1-10.05-2.24,23.9,23.9,0,0,1-8.47-5.78,24.94,24.94,0,0,1-6.6-17.52,27.12,27.12,0,0,1,2.76-11.66,34.55,34.55,0,0,1,7.56-10.52,26.6,26.6,0,0,1,19-7.33c7.39,0,13.58,2.37,18.41,7a23.08,23.08,0,0,1,7.14,17.21,28.2,28.2,0,0,1-2.38,10.53,36.39,36.39,0,0,1-6.74,10.45,30.7,30.7,0,0,1-9.89,7.21A25.45,25.45,0,0,1,224,128.33ZM203.85,91.12q-.21.42-.41.84a25.17,25.17,0,0,0-2.57,10.81,23,23,0,0,0,6.07,16.17,22,22,0,0,0,7.79,5.3,22.94,22.94,0,0,0,9.26,2.08,23.49,23.49,0,0,0,9.87-2.43,31.26,31.26,0,0,0,3.92-2.19c-5.3,2.81-12,2.82-19-.39a29.4,29.4,0,0,1-9.3-6.63c-4.58-5-6.9-10.58-6.9-16.53A20.08,20.08,0,0,1,203.85,91.12ZM223.7,79.8c-5.37,0-9.81,1.65-13.2,4.91a18.17,18.17,0,0,0-5.89,13.46c0,5.43,2.14,10.53,6.36,15.17a27.4,27.4,0,0,0,8.67,6.17,22.48,22.48,0,0,0,9.45,2.29,15.94,15.94,0,0,0,12.5-5.64,20.7,20.7,0,0,0,5.07-14.24,21.3,21.3,0,0,0-6.32-15.85C236.06,81.91,230.46,79.8,223.7,79.8Zm0-2c7.29,0,13.36,2.3,18,6.83s6.93,10.31,6.93,17.28a23.42,23.42,0,0,1-3.41,12.68,35.57,35.57,0,0,0,4.23-7.32,26.22,26.22,0,0,0,2.22-9.75,21.15,21.15,0,0,0-6.54-15.77c-4.44-4.3-10.17-6.49-17-6.49a24.67,24.67,0,0,0-17.34,6.53A20.77,20.77,0,0,1,223.7,77.8Z" style="fill:#f0dc52"/><path d="M266.91,105.73q0,16.42,1.15,18.07a1.23,1.23,0,0,0,.5.5l.72.36q.86.43.86.86,0,.65-1,.65h-.29Q266,126,264.46,126t-4.32.22h-.21q-.94,0-.94-.65c0-.24.19-.43.58-.58l.5-.22.65-.29q1.08-.58,1.08-3.82v-.79q0-.94-.07-2.09,0-1.94-.07-2.88v-3.74q-.14-6.77-.14-10.51-.07-4.54-.07-14.33,0-7.49-.58-8.5c0-.19-.24-.36-.58-.5l-.36-.22-.36-.14q-1-.58-1-.86,0-.58.87-.58h3.81q10,0,13.54.94,9.5,2.38,9.5,10.66A10.81,10.81,0,0,1,283,95a18.88,18.88,0,0,1-9.5,5.11l14.11,21a15,15,0,0,0,2,2.45,6.33,6.33,0,0,0,1.37,1.08q1.15.65,1.15.94,0,.65-1,.65l-.22-.07h-.21a13.27,13.27,0,0,0-1.66-.07h-2.3a18.22,18.22,0,0,0-1.87.07.3.3,0,0,1-.22.07q-.58,0-4.75-7-2.16-3.67-5.11-7.85a121.85,121.85,0,0,0-7.85-10Zm.21-6q6.26,0,9.58-3T280,88A11,11,0,0,0,277,80a10.49,10.49,0,0,0-7.85-3.1c-.72,0-1.15.14-1.29.43a4.59,4.59,0,0,0-.14.79c0,.48-.1,1-.14,1.66q-.5,9.94-.65,20Z" style="fill:#f0dc52"/><path d="M291.1,127.25l-.57-.08a12,12,0,0,0-1.52-.06h-2.3c-.66,0-1.19,0-1.57,0a1.36,1.36,0,0,1-.51.1c-.69,0-1.15,0-5.61-7.47-1.42-2.41-3.12-5-5.07-7.78s-3.86-5.27-6-7.87v1.6c0,14.43.68,17,1,17.5l.07.12.12.09.66.33c.35.17,1.42.71,1.42,1.76,0,.28-.1,1.65-2,1.65h-.29c-2-.14-3.41-.22-4.39-.22s-2.32.07-4.25.21h-.29c-1.43,0-1.94-.89-1.94-1.65a1.6,1.6,0,0,1,1.22-1.51l1.1-.48h0s.49-.42.49-2.9v-.79q0-.91-.07-2c0-1.34,0-2.28-.07-2.87v-3.82c-.09-4.45-.14-8-.14-10.51,0-3-.07-7.69-.07-14.33s-.34-7.79-.45-8l0,0-.08,0-.82-.41c-.73-.42-1.51-.93-1.51-1.73s.49-1.58,1.87-1.58h3.81c6.82,0,11.33.32,13.79,1,6.8,1.7,10.25,5.61,10.25,11.62a11.82,11.82,0,0,1-3.61,8.63,19.1,19.1,0,0,1-8.61,5l13.34,19.87a14.16,14.16,0,0,0,1.89,2.3,5.4,5.4,0,0,0,1.14.91c1.06.6,1.67,1.08,1.67,1.81C293.1,125.88,293,127.25,291.1,127.25Zm-31.29-1.31Zm9.42-.13Zm-1.57-25.06h0a123.5,123.5,0,0,1,7.91,10.09c2,2.8,3.71,5.47,5.15,7.91a59.39,59.39,0,0,0,4.14,6.41c.46,0,1.06-.06,1.84-.06h3.11a8.73,8.73,0,0,1-.94-.82,16.08,16.08,0,0,1-2.15-2.61l-14.46-21.54A19.64,19.64,0,0,1,267.66,100.75ZM264.46,125c.86,0,2,.05,3.51.15a2.21,2.21,0,0,1-.8-.84c-.63-1.05-1.26-4.29-1.26-18.54v-7c.1-6.34.31-12.75.63-19.06.05-.66.1-1.22.15-1.71a5,5,0,0,1,.19-1l.05-.12a1.5,1.5,0,0,1,.21-.31q-1.82,0-3.92,0h-2.31a1.74,1.74,0,0,1,.85.9c.24.46.66,1.69.66,8.9,0,6.62,0,11.31.07,14.31,0,2.52,0,6.05.14,10.51v3.76c0,.57.07,1.54.07,2.88,0,.71.07,1.44.07,2.09v.79c0,2.3-.4,3.74-1.24,4.45C262.78,125,263.76,125,264.46,125Zm4.52-1.55v0h0Zm-.24-45.53c0,.08,0,.19,0,.32,0,.45-.09,1-.14,1.61-.32,6.25-.53,12.62-.63,18.92,3.51-.12,6.23-1,8.1-2.75s3-4.44,3-8a10,10,0,0,0-2.74-7.37,9.45,9.45,0,0,0-7.13-2.79A2.77,2.77,0,0,0,268.73,77.88Zm5.89-.85a10.93,10.93,0,0,1,3.08,2.23A12.06,12.06,0,0,1,281,88c0,4.07-1.22,7.25-3.64,9.45q-.3.27-.61.52a15.78,15.78,0,0,0,5.47-3.67,9.78,9.78,0,0,0,3-7.24c0-5-2.86-8.21-8.75-9.69A16.77,16.77,0,0,0,274.62,77Zm-14.73,1,0,.09Z" style="fill:#f0dc52"/><path d="M304.92,119.63a13.36,13.36,0,0,0,.36,3.24,4,4,0,0,0,.86,1.58l.43.43.36.29c.24.24.36.43.36.58s-.29.43-.86.43h-.22l-1.15-.07-1.15-.07h-3l-1.08.07-1.08.07h-.29c-.62,0-.94-.17-.94-.5q0-.22,1.22-1.22a3.32,3.32,0,0,0,.79-1.08,6.25,6.25,0,0,0,.36-2.23v-1.73l-.72-36.14q-.07-4.68-1-5.47a1.46,1.46,0,0,0-.79-.43l-.87-.29q-.86-.36-.86-.86t1.3-.65q3.24.22,5.76.22,2,0,5.11-.22l.22-.07h.21c.48,0,.72.17.72.5s-.29.62-.86,1l-.87.5a7.16,7.16,0,0,0-.72.65q-.94.94-1.08,5.11l-.58,36.07Z" style="fill:#f0dc52"/><path d="M306.43,127.18h-.22l-2.37-.15H301l-2.45.14c-1.84,0-1.94-1.25-1.94-1.5,0-.55.33-1,1.59-2a2.27,2.27,0,0,0,.51-.71,5.35,5.35,0,0,0,.28-1.83v-1.73l-.72-36.12c-.06-4-.6-4.67-.66-4.73s-.28-.2-.3-.2l-.15,0-.87-.29c-1.29-.53-1.55-1.28-1.55-1.81s.17-1.65,2.3-1.65,4.11.22,5.76.22c1.28,0,2.94-.07,4.92-.21l.25-.08h.38A1.53,1.53,0,0,1,310,76a2.43,2.43,0,0,1-1.31,1.84l-.86.5a6.68,6.68,0,0,0-.57.52c-.11.11-.67.84-.79,4.44l-.58,36.33a12.42,12.42,0,0,0,.33,3,2.92,2.92,0,0,0,.6,1.12l.79.72a1.89,1.89,0,0,1,.65,1.28C308.3,126,308.21,127.18,306.43,127.18Zm-.07-1.15Zm-8-49.38a2.68,2.68,0,0,1,.57.44c.58.48,1.23,1.64,1.3,6.16l.72,36.14v1.75a7.26,7.26,0,0,1-.43,2.59l0,.09a4.42,4.42,0,0,1-.94,1.31l1.35-.09h3l1.49.09a5,5,0,0,1-1.07-1.94,14.35,14.35,0,0,1-.41-3.56v-.29l.58-36.09c.11-3.18.53-5,1.37-5.8a8,8,0,0,1,.82-.74l.11-.07c-1.59.1-2.94.14-4,.14C301.45,76.78,300,76.73,298.36,76.65Z" style="fill:#f0dc52"/><path d="M121.59,198q0-.5,1-.86l.94-.36a6.14,6.14,0,0,0,.94-.43q1.51-1,1.51-4v-.65l-1-36.79q-.15-4-1.08-4.68a2.42,2.42,0,0,0-.86-.5l-.43-.22-.43-.14q-.86-.36-.86-.72,0-.65,1.3-.65h.29q4.54.36,5.83.36,1.73,0,6.62-.36h.29a2.39,2.39,0,0,1,.72.14.59.59,0,0,1,.22.36q0,.65-.94.86l-.5.14-.58.07-.72.22-.58.14a2.1,2.1,0,0,0-1.44,1,14,14,0,0,0-.36,3l-.65,39.24v1.08q0,1.51.43,1.87a4.28,4.28,0,0,0,2.16.29q11.3,0,19-2.52a22,22,0,0,0,3-1.3,11.8,11.8,0,0,0,2-1.3q.86-.58,1.44-1a2.68,2.68,0,0,1,.58-.29,1.29,1.29,0,0,1,.36.14,1.12,1.12,0,0,1,.14.43,59.34,59.34,0,0,1-3.74,5.76q-2.81,4-3.31,4c-.43,0-.65-.17-.65-.5l.29-1.15q-6-.36-19.08-.36h-4.25l-2,.07q-2.88.15-4.32.29a1.24,1.24,0,0,1-.5.07C121.85,198.65,121.59,198.43,121.59,198Z" style="fill:#f0dc52"/><path d="M152.91,201.23a1.49,1.49,0,0,1-1.65-1.5l0-.22c-4-.19-10-.29-17.82-.29h-4.25l-2,.07c-1.8.09-3.2.18-4.13.27a2.47,2.47,0,0,1-.73.09,1.63,1.63,0,0,1-1.79-1.65c0-.8.56-1.41,1.67-1.8l.91-.35a5.35,5.35,0,0,0,.74-.33c.71-.47,1.07-1.55,1.07-3.2v-.65l-1-36.76c-.12-3.38-.67-3.9-.69-3.92l-.09-.08a1.46,1.46,0,0,0-.51-.28l-.83-.35c-.43-.18-1.55-.64-1.55-1.67,0-.39.17-1.65,2.3-1.65h.29c3.05.24,5,.36,5.83.36,1.13,0,3.34-.12,6.55-.36h.36a3.31,3.31,0,0,1,1,.2l.22.08.17.17a1.54,1.54,0,0,1,.51,1.07c0,.43-.17,1.48-1.71,1.84l-.61.16-.49.06-1.26.35a1.34,1.34,0,0,0-.76.44,15.28,15.28,0,0,0-.28,2.61l-.65,40.26a4.08,4.08,0,0,0,.1,1.08,8.85,8.85,0,0,0,1.49.08,61.1,61.1,0,0,0,18.7-2.47,21.11,21.11,0,0,0,2.87-1.23,10.94,10.94,0,0,0,1.86-1.2c.62-.42,1.09-.74,1.46-1l.1-.07a2.11,2.11,0,0,1,1.07-.42,1.78,1.78,0,0,1,.8.25l.3.15.15.3a2,2,0,0,1,.25.88c0,.42,0,.59-3.92,6.32C154.08,201,153.54,201.23,152.91,201.23Zm-.37-1.91ZM121.59,198h0Zm16.48-.77c6.41,0,11.29.15,14.54.35l1.2.07-.08.31c.41-.53,1-1.26,1.67-2.27,1-1.51,1.77-2.61,2.3-3.4a12.2,12.2,0,0,1-1.83,1.13,22.91,22.91,0,0,1-3.14,1.35A56.93,56.93,0,0,1,138.06,197.23Zm-13.51-47.79c.88.73,1.31,2.35,1.42,5.39l1,37.48c0,2.36-.66,4-2,4.86a3.35,3.35,0,0,1-.49.26l2.63-.15,2-.07h2.32a1.72,1.72,0,0,1-1-.46c-.48-.39-.72-1.21-.72-2.58v-1.08l.65-39.26a12.57,12.57,0,0,1,.42-3.29l0-.1a2.79,2.79,0,0,1,1.42-1.3c-1.63.1-2.85.15-3.62.15s-2.35-.09-4.69-.27A2.78,2.78,0,0,1,124.55,149.44Zm7.22,45.79Zm3.89-47Z" style="fill:#f0dc52"/><path d="M172.78,192a13.37,13.37,0,0,0,.36,3.24,4,4,0,0,0,.87,1.58l.43.43.36.29c.24.24.36.43.36.58s-.29.43-.87.43h-.21l-1.15-.07-1.15-.07h-3l-1.08.07-1.08.07h-.29c-.62,0-.94-.17-.94-.5q0-.22,1.22-1.22a3.33,3.33,0,0,0,.79-1.08,6.21,6.21,0,0,0,.36-2.23v-1.73l-.72-36.14q-.07-4.68-1-5.47a1.45,1.45,0,0,0-.79-.43l-.86-.29q-.86-.36-.86-.86t1.29-.65q3.24.22,5.76.22,2,0,5.11-.22l.21-.07h.22c.48,0,.72.17.72.5s-.29.62-.86,1l-.86.5a7,7,0,0,0-.72.65q-.94.94-1.08,5.11l-.58,36.07Z" style="fill:#f0dc52"/><path d="M174.29,199.58h-.21l-2.37-.15h-2.89l-2.45.14c-1.84,0-1.94-1.25-1.94-1.5,0-.55.31-.94,1.59-2a2.35,2.35,0,0,0,.53-.76,5.36,5.36,0,0,0,.26-1.79v-1.73l-.72-36.12c-.06-4-.6-4.67-.66-4.73s-.28-.2-.3-.2l-.15,0-.86-.29c-1.29-.54-1.55-1.28-1.55-1.81s.17-1.65,2.29-1.65,4.11.22,5.76.22c1.29,0,2.94-.07,4.92-.21l.25-.08h.38a1.53,1.53,0,0,1,1.72,1.5,2.42,2.42,0,0,1-1.31,1.84l-.86.5a6.48,6.48,0,0,0-.57.52c-.11.11-.67.84-.79,4.44L173.78,192a12.48,12.48,0,0,0,.33,3,2.92,2.92,0,0,0,.6,1.12l.79.72a1.9,1.9,0,0,1,.65,1.28C176.16,198.39,176.07,199.58,174.29,199.58ZM166.22,149a2.72,2.72,0,0,1,.57.44c.57.48,1.23,1.64,1.3,6.17l.72,36.14v1.75a7.21,7.21,0,0,1-.43,2.59,4.55,4.55,0,0,1-1,1.4l1.35-.09h3l1.49.09a5,5,0,0,1-1.08-1.94,14.36,14.36,0,0,1-.41-3.56v-.29l.58-36.09c.11-3.18.53-5,1.37-5.8a8,8,0,0,1,.83-.74l.11-.07c-1.58.1-2.94.14-4,.14C169.3,149.18,167.83,149.13,166.22,149Z" style="fill:#f0dc52"/><path d="M233.91,190.3a37.43,37.43,0,0,0-6.62,2.52q-2.31,1.15-5.47,3.1-6.19,4-10.87,4-12.6,0-20.81-7.13a22.18,22.18,0,0,1-8.06-17.5,24.44,24.44,0,0,1,3.31-12.1,33,33,0,0,1,9.36-10.37,29.66,29.66,0,0,1,18-6.12q11.3,0,17.5,6.12a47.56,47.56,0,0,1-5.69,3.31,4.92,4.92,0,0,1-1.37-.79l-.5-.36-.58-.43a9.3,9.3,0,0,0-1.37-.79,27.14,27.14,0,0,0-12.82-2.88q-9.43,0-15,6-5.33,5.9-5.33,15.55a23.59,23.59,0,0,0,1.66,9.29,18.75,18.75,0,0,0,5.76,7.06,26.68,26.68,0,0,0,17.13,6.12q7.06,0,15.55-5.33V178.56q0-3.17-.79-4.18a5.73,5.73,0,0,0-1.08-.94l-.65-.29-.58-.22q-1.29-.58-1.3-1.08t.87-.65h.36q4.9.36,6.19.36t5.83-.36h.22q.86,0,.86.65,0,.43-1.08,1.22l-.5.36-.5.43a4.2,4.2,0,0,0-.94.94q-.72.94-.72,3.89Z" style="fill:#f0dc52"/><path d="M210.94,200.87c-8.61,0-15.83-2.48-21.46-7.37a23.23,23.23,0,0,1-8.41-18.25,25.53,25.53,0,0,1,3.44-12.58A34.19,34.19,0,0,1,194.15,152a30.77,30.77,0,0,1,18.59-6.31c7.77,0,13.89,2.16,18.2,6.41l.9.89-1.08.67c-5.57,3.46-5.83,3.46-6.22,3.46s-.73-.14-1.94-1l-1.11-.81a7.88,7.88,0,0,0-1.16-.67,26.39,26.39,0,0,0-12.42-2.8c-6,0-10.76,1.9-14.24,5.66s-5.06,8.73-5.06,14.87a22.72,22.72,0,0,0,1.58,8.9,17.85,17.85,0,0,0,5.46,6.66,25.83,25.83,0,0,0,16.52,5.91c4.37,0,9.26-1.64,14.55-4.88V178.56c0-2.55-.4-3.34-.58-3.56a4.64,4.64,0,0,0-.79-.68l-1.08-.44c-.94-.41-1.95-1-1.95-2a1.65,1.65,0,0,1,1.87-1.65h.36c3.29.24,5.35.36,6.19.36s2.78-.12,5.75-.36h.3a1.65,1.65,0,0,1,1.86,1.65c0,.66-.45,1.27-1.49,2l-.51.37-.43.38a3.53,3.53,0,0,0-.73.69l-.06.09c-.15.2-.51.92-.51,3.28v12.36l-.75.2a36.58,36.58,0,0,0-6.44,2.45c-1.5.75-3.31,1.78-5.38,3C218.08,199.49,214.24,200.87,210.94,200.87ZM192,156.33a31,31,0,0,0-5.79,7.32,23.55,23.55,0,0,0-3.18,11.6A21.31,21.31,0,0,0,190.78,192c5.26,4.57,12,6.88,20.15,6.88,2.91,0,6.39-1.28,10.33-3.8,2.14-1.31,4-2.37,5.56-3.15a40.38,40.38,0,0,1,6.07-2.39V178.71c0-2.21.29-3.62.9-4.45a5.15,5.15,0,0,1,1.14-1.15l.48-.41.57-.42h0c-2.67.21-4.42.31-5.27.31s-2.46-.09-5-.27l.69.33a6.63,6.63,0,0,1,1.27,1.11c.71.9,1,2.42,1,4.82v11.5l-.47.29c-5.8,3.64-11.21,5.48-16.08,5.48a27.78,27.78,0,0,1-17.76-6.34,19.81,19.81,0,0,1-6-7.43,24.7,24.7,0,0,1-1.74-9.69C186.61,165.81,188.43,160.42,192,156.33Zm15.88-6.49a28.25,28.25,0,0,1,13.28,3,9.8,9.8,0,0,1,1.46.84l1.11.81c.39.27.64.43.8.52.43-.22,1.48-.82,4-2.38-3.86-3.29-9.18-5-15.85-5a28.39,28.39,0,0,0-15.38,4.54A22.64,22.64,0,0,1,207.91,149.84Z" style="fill:#f0dc52"/><path d="M249.6,196a2.8,2.8,0,0,0,.86.65l.58.22.65.14q1.58.51,1.58,1c0,.43-.19.65-.58.65l-.22-.07h-.29a42.93,42.93,0,0,0-5.26-.43,46.17,46.17,0,0,0-4.68.43H242c-.67,0-1-.22-1-.65s.6-.67,1.8-1.15a3.37,3.37,0,0,0,1.3-.86,3,3,0,0,0,.72-1.87v-.58a8.59,8.59,0,0,1,.07-1.08v-1.51q.07-.72.07-2l.22-5.4.14-3.6.21-3.74q.5-9.14.87-15.7.14-2.45.21-4c0-.91.07-1.42.07-1.51q0-3.53-2.59-4.9a3.49,3.49,0,0,0-.94-.36l-.58-.07-.43-.07c-.77-.14-1.15-.43-1.15-.86s.33-.79,1-.79h.14q1.66.15,2.88.22t1.58.07h.87a9.31,9.31,0,0,0,1.15-.07l1.22-.14,1.37-.07q19.66,20.74,38.52,39.38l-.36-29.81q-.14-5.62-1.8-7.27a2.57,2.57,0,0,0-.87-.65l-.43-.22-.36-.14q-.79-.36-.79-.72c0-.38.43-.58,1.3-.58h8.14q1.51,0,1.51.65c0,.29-.31.53-.94.72a2.92,2.92,0,0,0-1.58,1.66q-.58,1.44-1.15,9.07-.5,8.06-.5,21.53,0,10.87.58,17.42l-1.22-.29q-4.68-7.27-17.5-19.73-.58-.5-2.3-2.23a16.89,16.89,0,0,1-1.58-1.51q-1-.86-1.87-1.73l-3-2.88-3.1-3Q254,160,248.81,154.44q-.22,7.34-.21,14.76Q248.59,194.33,249.6,196Z" style="fill:#f0dc52"/><path d="M293.63,200.23l-3-.7-.22-.34c-3.06-4.76-8.9-11.34-17.35-19.55q-.54-.47-2.31-2.24a17.46,17.46,0,0,1-1.58-1.5c-.67-.57-1.3-1.16-1.88-1.74l-6.1-5.82c-4.45-4.29-8.3-8.13-11.48-11.46-.1,4.05-.15,8.18-.15,12.32,0,20.69.52,25.35.85,26.22a2.81,2.81,0,0,0,.45.3l.44.16.58.13c.83.26,2.37.75,2.37,2a1.53,1.53,0,0,1-1.58,1.65h-.16l-.47-.08a42.32,42.32,0,0,0-5.13-.42,45.73,45.73,0,0,0-4.56.42H242c-1.91,0-2-1.37-2-1.65,0-.92.93-1.48,2.43-2.08a2.44,2.44,0,0,0,.91-.58,2,2,0,0,0,.48-1.29v-.51a9.58,9.58,0,0,1,.07-1.14v-1.45c0-.54.07-1.19.07-2l.36-9,1.08-19.46q.14-2.44.21-4c0-.87.07-1.35.07-1.47,0-2-.67-3.28-2.06-4a2.44,2.44,0,0,0-.66-.26l-1-.14c-1.73-.32-2-1.3-2-1.85a1.78,1.78,0,0,1,2-1.79h.14c1.18.1,2.13.17,2.94.22s1.2.07,1.53.07h.87a8.34,8.34,0,0,0,1-.06l1.23-.15,1.89-.1.32.33c12.43,13.12,24.79,25.77,36.76,37.64l-.33-27.37c-.11-4.3-.88-6-1.51-6.58l-.07-.08a1.58,1.58,0,0,0-.54-.38l-.71-.33c-.38-.17-1.42-.64-1.42-1.65,0-.47.22-1.58,2.3-1.58h8.14c2.19,0,2.51,1,2.51,1.65s-.27,1.23-1.56,1.65a1.88,1.88,0,0,0-1.05,1.14c-.18.45-.58,2.23-1.07,8.74-.33,5.32-.5,12.54-.5,21.45,0,7.19.19,13,.57,17.34Zm-49.22-51.16.23.13c2,1.07,3.08,3,3.08,5.75,0,.1,0,.62-.07,1.56s-.12,2.33-.22,4l-1.08,19.44-.36,9q0,1.3-.07,2.07v1.54a7.57,7.57,0,0,0-.06,1V194a4,4,0,0,1-1,2.54,3.75,3.75,0,0,1-1,.8c1.42-.16,2.43-.23,3.06-.23s1.63,0,2.66.14a3,3,0,0,1-.8-.7l0-.07c-.37-.61-1.15-1.89-1.15-27.31,0-5,.07-10,.21-14.79l.07-2.43,1.66,1.77c3.44,3.68,7.84,8.1,13.07,13.14l6.12,5.83q.87.86,1.83,1.69l.09.09a16,16,0,0,0,1.49,1.42c1.19,1.19,2,1.92,2.31,2.24,7.94,7.71,13.61,14,16.91,18.78-.28-4.1-.42-9.28-.42-15.44,0-9,.17-16.22.51-21.59.53-7,.95-8.7,1.22-9.38a4.18,4.18,0,0,1,1.08-1.55l.12-.11h-6.24a3.27,3.27,0,0,1,.74.63c1.28,1.32,2,3.91,2.06,7.92l.39,32.26L289.08,188c-12.42-12.28-25.28-25.42-38.22-39.07l-.91,0-1.16.14a10.43,10.43,0,0,1-1.27.08h-.87q-.52,0-1.65-.07Z" style="fill:#f0dc52"/><path d="M18.75,83.55c-3.79.75-4.86,3.2-5.25,5.83s4.48,6.08,7.25,6.08,4.22-5.91,3.92-7.83A4.85,4.85,0,0,0,18.75,83.55Z" style="fill:#f0dc52"/><path d="M17.08,119c4.42,1.38,7.58,1,8.83-3s-2.58-10.83-6.83-9.5-3.92,3.58-5,6.25S12.67,117.59,17.08,119Z" style="fill:#f0dc52"/><path d="M40.89,3.72C37.73-.85,32.61-.83,27,1.72,19.89,5,4.14,29.35,1.52,36.72s-3,11.79,8.75,21.88a336.5,336.5,0,0,1,34.36,38c-13.18,26.17-41,79.73-34.15,90.05,7.1,11.17,9.11,13.24,11.42,12.79,3.54-.69,3.06-3.12.75-12a35.06,35.06,0,0,1-1-5c-.31-9.11,30.29-5.13,41-2.68s18.68-1.08,8.59-9.29-20.32-8.73-17.61-5.54,8.69,9.1-10.89,2.28c-7.33-2.43-13.73-4.49-11.88-7.51a2.7,2.7,0,0,0,.22-.47c5.33-7.85,19.88-28.95,29.71-40.12,21.1,32.37,39.11,73.79,31.15,114.16-.82,4.15-.19,6.51,2,7.54s5.12,2.58,6.87-4.58S130.39,133.6,40.89,3.72Z" style="fill:#f0dc52"/></svg>
