<svg xmlns="http://www.w3.org/2000/svg" viewBox="0 0 106.2 241.69" width="10" height="23"><title>aa - final outlined glyph</title><path d="M18.75,83.55c-3.79.75-4.86,3.2-5.25,5.83s4.48,6.08,7.25,6.08,4.22-5.91,3.92-7.83A4.85,4.85,0,0,0,18.75,83.55Z" style="fill:#f0dc52"/><path d="M17.08,119c4.42,1.38,7.58,1,8.83-3s-2.58-10.83-6.83-9.5-3.92,3.58-5,6.25S12.67,117.59,17.08,119Z" style="fill:#f0dc52"/><path d="M40.89,3.72C37.73-.85,32.61-.83,27,1.72,19.89,5,4.14,29.35,1.52,36.72s-3,11.79,8.75,21.88a336.5,336.5,0,0,1,34.36,38c-13.18,26.17-41,79.73-34.15,90.05,7.1,11.17,9.11,13.24,11.42,12.79,3.54-.69,3.06-3.12.75-12a35.06,35.06,0,0,1-1-5c-.31-9.11,30.29-5.13,41-2.68s18.68-1.08,8.59-9.29-20.32-8.73-17.61-5.54,8.69,9.1-10.89,2.28c-7.33-2.43-13.73-4.49-11.88-7.51a2.7,2.7,0,0,0,.22-.47c5.33-7.85,19.88-28.95,29.71-40.12,21.1,32.37,39.11,73.79,31.15,114.16-.82,4.15-.19,6.51,2,7.54s5.12,2.58,6.87-4.58S130.39,133.6,40.89,3.72Z" style="fill:#f0dc52"/></svg>
