<?xml version="1.0" encoding="utf-8"?>
<svg version="1.1" xmlns="http://www.w3.org/2000/svg" xmlns:xlink="http://www.w3.org/1999/xlink" x="0" y="0"
	 viewBox="0 0 170 177.1" style="enable-background:new 0 0 170 177.1;" xml:space="preserve">
<style type="text/css">
	.st0{fill:#CE2020;}
	.st1{fill:#338235;}
	.st2{fill:#105599;}
</style>
<g>
	<path d="M11.7,146.8H5.4l-1.8,6.3H1.2l6.8-22.8h1.3l6.8,22.8h-2.5L11.7,146.8z M6,144.7h5.1l-1.9-7l-0.6-3.4H8.5l-0.6,3.4L6,144.7z
		"/>
	<path d="M29.4,132.9h-5.1c-0.2,4.3-0.4,7.9-0.7,10.8c-0.3,2.9-0.7,5.1-1.3,6.7c-0.4,1-0.8,1.8-1.3,2.2c-0.5,0.5-1.1,0.7-1.8,0.7
		c-0.6,0-1.1-0.1-1.6-0.3l0.4-2.2c0.4,0.1,0.8,0.1,1.2-0.1c0.4-0.2,0.7-0.7,1-1.5c0.2-0.6,0.5-1.3,0.7-2.3c0.2-1,0.4-2.2,0.5-3.7
		c0.2-1.5,0.3-3.3,0.4-5.3c0.1-2,0.2-4.4,0.2-7.2h9.8v22.4h-2.4V132.9z"/>
	<path d="M37.5,130.7h2.4v8.7c0.3-0.1,0.7-0.1,1.2-0.2c0.5-0.1,1-0.1,1.4-0.1c0.9,0,1.7,0.1,2.4,0.3c0.8,0.2,1.5,0.6,2.1,1.1
		c0.6,0.5,1.1,1.2,1.4,2.1s0.5,2,0.5,3.3c0,1.3-0.2,2.4-0.5,3.4c-0.3,0.9-0.8,1.7-1.4,2.3c-0.6,0.6-1.4,1.1-2.2,1.4
		c-0.9,0.3-1.9,0.4-2.9,0.4c-0.2,0-0.5,0-0.9,0c-0.4,0-0.7,0-1.1-0.1c-0.4,0-0.8-0.1-1.2-0.1c-0.4-0.1-0.8-0.1-1.1-0.2V130.7z
		 M42.1,151.1c1.3,0,2.3-0.4,3.1-1.2c0.8-0.8,1.2-2.1,1.2-3.8c0-0.9-0.1-1.7-0.3-2.3c-0.2-0.6-0.5-1.1-0.9-1.5
		c-0.4-0.4-0.9-0.6-1.4-0.8c-0.5-0.1-1.1-0.2-1.7-0.2c-0.1,0-0.3,0-0.5,0c-0.2,0-0.4,0-0.7,0.1s-0.4,0.1-0.6,0.1
		c-0.2,0-0.3,0.1-0.4,0.1v9.3c0.3,0.1,0.6,0.1,1,0.1S41.7,151.1,42.1,151.1z"/>
	<path d="M53.5,130.7h10v2.2h-7.6v6.9c0.3-0.1,0.7-0.1,1.1-0.2c0.4-0.1,0.9-0.1,1.3-0.1c0.9,0,1.7,0.1,2.5,0.3
		c0.8,0.2,1.5,0.5,2.1,1c0.6,0.5,1.1,1.2,1.4,2s0.5,1.9,0.5,3.2c0,1.3-0.2,2.4-0.5,3.3c-0.3,0.9-0.8,1.7-1.4,2.3
		c-0.6,0.6-1.3,1-2.1,1.3c-0.8,0.3-1.7,0.4-2.7,0.4c-0.3,0-0.6,0-1,0c-0.4,0-0.8,0-1.2-0.1c-0.4,0-0.8-0.1-1.2-0.1s-0.8-0.1-1.1-0.2
		V130.7z M55.9,150.9c0.2,0.1,0.6,0.1,1.1,0.2s0.9,0,1.4,0c1.2,0,2.1-0.4,2.8-1.1c0.7-0.7,1.1-1.9,1.1-3.6c0-1-0.1-1.9-0.3-2.5
		c-0.2-0.6-0.5-1.1-0.9-1.5c-0.4-0.3-0.8-0.6-1.4-0.7s-1.1-0.2-1.7-0.2c-0.1,0-0.3,0-0.5,0s-0.4,0-0.6,0.1c-0.2,0-0.4,0.1-0.6,0.1
		c-0.2,0-0.3,0.1-0.4,0.1V150.9z"/>
	<path d="M69.3,130.7h10v2.2h-7.6v7.6h6.9v2.2h-6.9v8.2h7.7v2.2H69.3V130.7z"/>
	<path d="M84.6,130.9c0.7-0.2,1.4-0.3,2.2-0.4c0.8-0.1,1.5-0.1,2.3-0.1c0.9,0,1.7,0.1,2.5,0.3c0.8,0.2,1.6,0.5,2.3,1.1
		c0.7,0.5,1.2,1.2,1.6,2.1c0.4,0.9,0.6,2,0.6,3.4c0,1.3-0.2,2.5-0.6,3.4c-0.4,0.9-0.9,1.7-1.6,2.3c-0.7,0.6-1.4,1-2.2,1.3
		c-0.8,0.3-1.7,0.4-2.6,0.4c-0.1,0-0.2,0-0.4,0c-0.2,0-0.4,0-0.6,0c-0.2,0-0.4,0-0.6,0c-0.2,0-0.3,0-0.4-0.1v8.5h-2.4V130.9z
		 M89.2,132.6c-0.4,0-0.8,0-1.2,0c-0.4,0-0.7,0.1-0.9,0.1v9.5c0.1,0,0.2,0.1,0.4,0.1s0.4,0,0.6,0c0.2,0,0.4,0,0.6,0s0.3,0,0.4,0
		c0.6,0,1.2-0.1,1.7-0.2s1-0.4,1.5-0.8c0.4-0.4,0.8-0.9,1-1.6c0.3-0.7,0.4-1.5,0.4-2.5c0-0.9-0.1-1.6-0.4-2.2
		c-0.2-0.6-0.6-1.1-1-1.4c-0.4-0.4-0.9-0.6-1.4-0.8S89.8,132.6,89.2,132.6z"/>
	<path d="M112.5,132.9H107v20.2h-2.4v-20.2h-5.5v-2.2h13.4V132.9z"/>
	<path d="M130.4,138.4l0.3-3.4h-0.1l-1,3.2l-4.5,9.7h-0.8l-4.7-9.7l-1-3.2h-0.1l0.4,3.4v14.7h-2.3v-22.4h2l5.4,11l0.8,2.6h0.1
		l0.8-2.7l5.1-11h2.1v22.4h-2.4V138.4z"/>
	<path d="M138.5,130.7h10v2.2h-7.6v7.6h6.9v2.2h-6.9v8.2h7.7v2.2h-10.1V130.7z"/>
	<path d="M168.5,157.2h-1.7l-0.4-4.1H154l-0.4,4.1h-1.7v-6.3h1.9c0.1-0.2,0.3-0.8,0.6-1.7c0.3-0.9,0.6-2.1,0.9-3.8
		c0.3-1.6,0.5-3.7,0.8-6.1c0.2-2.4,0.3-5.3,0.3-8.7h9.9v20.2h2.3V157.2z M163.8,150.9v-18h-5.2c-0.1,4.7-0.4,8.5-0.8,11.5
		s-0.9,5.1-1.5,6.5H163.8z"/>
	<path d="M33.2,168.2l0.1-1.5h-0.1l-0.4,1.4l-2,4.3h-0.4l-2.1-4.3l-0.4-1.4h-0.1l0.2,1.5v6.4h-1v-9.8H28l2.4,4.8l0.4,1.1h0l0.3-1.2
		l2.2-4.8h0.9v9.8h-1V168.2z"/>
	<path d="M36,164.9h4.4v1h-3.3v3.3h3v1h-3v3.6h3.4v1H36V164.9z"/>
	<path d="M48.4,176.5h-0.7l-0.2-1.8h-5.4l-0.2,1.8h-0.7v-2.8H42c0.1-0.1,0.1-0.3,0.3-0.7s0.3-0.9,0.4-1.6c0.1-0.7,0.2-1.6,0.3-2.7
		c0.1-1.1,0.1-2.3,0.1-3.8h4.3v8.8h1V176.5z M46.3,173.7v-7.9h-2.3c0,2.1-0.2,3.7-0.4,5c-0.2,1.3-0.4,2.2-0.6,2.9H46.3z"/>
	<path d="M54.4,168.3l0.1-1.3h0l-0.5,1.3l-3.6,6.4h-0.7v-9.8h1v6.5l-0.1,1.3h0.1l0.5-1.3l3.6-6.5h0.7v9.8h-1.1V168.3z"/>
	<path d="M63.7,176.5H63l-0.2-1.8h-5.6v-9.8h1v8.8h3.4v-8.8h1v8.8h1V176.5z"/>
	<path d="M69.7,168.3l0.1-1.3h0l-0.5,1.3l-3.6,6.4h-0.7v-9.8h1v6.5l-0.1,1.3h0.1l0.5-1.3l3.6-6.5h0.7v9.8h-1.1V168.3z"/>
	<path d="M77.2,170.2h-3.6v4.5h-1v-9.8h1v4.3h3.6v-4.3h1v9.8h-1V170.2z"/>
	<path d="M85.2,174.3c-0.2,0.2-0.5,0.3-0.9,0.4s-0.7,0.1-1.1,0.1c-0.5,0-1-0.1-1.4-0.3c-0.4-0.2-0.8-0.5-1.1-0.9
		c-0.3-0.4-0.5-0.9-0.7-1.6c-0.2-0.6-0.3-1.4-0.3-2.3c0-0.9,0.1-1.7,0.3-2.4c0.2-0.6,0.4-1.2,0.8-1.6c0.3-0.4,0.7-0.7,1.1-0.9
		s0.8-0.3,1.3-0.3c0.4,0,0.8,0,1.1,0.1c0.3,0.1,0.5,0.1,0.8,0.2l-0.3,1c-0.2-0.1-0.4-0.2-0.7-0.2c-0.3-0.1-0.5-0.1-0.9-0.1
		s-0.6,0.1-0.9,0.2s-0.5,0.4-0.8,0.7c-0.2,0.3-0.4,0.7-0.5,1.3c-0.1,0.5-0.2,1.2-0.2,1.9c0,1.4,0.2,2.4,0.7,3.1c0.5,0.7,1.1,1,1.9,1
		c0.3,0,0.6,0,0.9-0.1c0.3-0.1,0.5-0.2,0.6-0.3L85.2,174.3z"/>
	<path d="M88,170.1h-0.5v4.5h-1v-9.8h1v4.6l0.5-0.2l2.5-4.4h1.2l-2.6,4.2l-0.5,0.4l0.6,0.6l2.8,4.6h-1.3L88,170.1z"/>
	<path d="M98.1,168.3l0.1-1.3h0l-0.5,1.3l-3.6,6.4h-0.7v-9.8h1v6.5l-0.1,1.3h0.1l0.5-1.3l3.6-6.5h0.7v9.8h-1V168.3z"/>
	<path d="M105.7,168.3l0.1-1.3h0l-0.5,1.3l-3.6,6.4H101v-9.8h1v6.5l-0.1,1.3h0.1l0.5-1.3l3.6-6.5h0.7v9.8h-1V168.3z M103,162.5
		c0,0.3,0.1,0.6,0.3,0.8s0.4,0.3,0.7,0.3s0.5-0.1,0.7-0.3c0.2-0.2,0.3-0.5,0.3-0.8l0.9,0.2c-0.1,0.5-0.3,0.9-0.6,1.2
		c-0.3,0.3-0.7,0.4-1.3,0.4c-0.6,0-1-0.1-1.4-0.4c-0.4-0.3-0.6-0.7-0.6-1.3L103,162.5z"/>
	<path d="M118.1,176.5h-0.7l-0.2-1.8h-5.6v-9.8h1v8.8h3.4v-8.8h1v8.8h1V176.5z"/>
	<path d="M119.3,164.9h4.4v1h-3.3v3.3h3v1h-3v3.6h3.4v1h-4.4V164.9z"/>
	<path d="M129.9,170.2h-3.6v4.5h-1v-9.8h1v4.3h3.6v-4.3h1.1v9.8h-1.1V170.2z"/>
	<path d="M137.9,165.8h-2.4v8.8h-1.1v-8.8h-2.4v-1h5.9V165.8z"/>
	<path d="M139,165c0.3-0.1,0.6-0.1,1-0.2s0.7,0,1,0c0.4,0,0.7,0,1.1,0.1c0.4,0.1,0.7,0.2,1,0.5s0.5,0.5,0.7,0.9
		c0.2,0.4,0.3,0.9,0.3,1.5c0,0.6-0.1,1.1-0.3,1.5c-0.2,0.4-0.4,0.7-0.7,1c-0.3,0.3-0.6,0.4-1,0.6c-0.4,0.1-0.7,0.2-1.1,0.2
		c0,0-0.1,0-0.2,0s-0.2,0-0.3,0c-0.1,0-0.2,0-0.3,0c-0.1,0-0.2,0-0.2,0v3.7h-1V165z M141,165.7c-0.2,0-0.4,0-0.5,0
		c-0.2,0-0.3,0-0.4,0.1v4.2c0,0,0.1,0,0.2,0s0.2,0,0.2,0c0.1,0,0.2,0,0.2,0c0.1,0,0.1,0,0.2,0c0.3,0,0.5,0,0.8-0.1
		c0.2-0.1,0.5-0.2,0.6-0.4c0.2-0.2,0.3-0.4,0.5-0.7c0.1-0.3,0.2-0.7,0.2-1.1c0-0.4-0.1-0.7-0.2-1c-0.1-0.3-0.2-0.5-0.4-0.6
		c-0.2-0.2-0.4-0.3-0.6-0.3C141.5,165.8,141.3,165.7,141,165.7z"/>
</g>
<rect x="75.9" y="49.7" class="st0" width="18.4" height="58.3"/>
<rect x="75.9" y="49.4" transform="matrix(4.484597e-11 -1 1 4.484597e-11 6.7033 163.4967)" class="st0" width="18.3" height="58"/>
<path class="st1" d="M41.4,122.3H0c0,0,12.5-86.8,85.1-122.3C85.1,0,41.8,39,41.4,122.3z"/>
<path class="st2" d="M128.7,122.3H170c0,0-12.5-86.8-84.9-122.3C85.1,0,128.3,39,128.7,122.3z"/>
</svg>
